# xmcd
#
# Track frame offsets:
#	150
#	7285
#	15640
#	22135
#	33527
#	42185
#	48227
#	59385
#	64697
#	73597
#	81160
#	86817
#	95490
#	100705
#	105812
#	111627
#	120637
#	127792
#	137427
#	142122
#	156510
#	161795
#	167775
#	173055
#	179105
#	184212
#	188692
#	200692
#	212480
#	220075
#
# Disc length: 2979 seconds
#
# Revision: 1
# Processed by: cddbd v1.4PL0 Copyright (c) Steve Scherf et al.
# Submitted via: audiograbber 1.80
#
DISCID=b40ba11e
DTITLE=30 Pegaditas De Oro Vol.4 - 30 Pegaditas De Oro Vol.4
DYEAR=1900
DGENRE=
TTITLE0=Amor De Unas Horas - Internacional Carro Show
TTITLE1=Te Aprovechas De Mi - El Combo Nuevo
TTITLE2=Pagaras - Edgar Leandro
TTITLE3=Veneno - Internacional Carro Show
TTITLE4=La Cumbia Del Amor - Lisandro Meza
TTITLE5=Tocame Un Porro - Fondo Musical Sonor's
TTITLE6=Juana La Cubana - Chucho Pinto Y Sus Kassino
TTITLE7=La Enfermera - Ray Cuestas
TTITLE8=La Gallana - Sonor's
TTITLE9=Chico Vacilon - Trombada De Chic
TTITLE10=Duelce Amor - Sonor's
TTITLE11=Embustera - Hugo Molinares
TTITLE12=Atrevida - Los Profesionales
TTITLE13=A Mover La Colita - Grupo Latino
TTITLE14=La Chispita - Hugo Blanco
TTITLE15=El Cafetero - Los Guacharacos De Colombia
TTITLE16=Chapoteando - Hugo Blanco
TTITLE17=Huayayay - Grupo Fantasma
TTITLE18=El Muñeco - Chucho Pinto Y Sus Kassino
TTITLE19=Linda Caleña - Los Herederos
TTITLE20=Ron Con Coca Cola - Los Solistas
TTITLE21=Los Gustos De Victor Perez - Los Solistas
TTITLE22=Paso La Vida Pensando (En Ti) - Nico Rojas
TTITLE23=Pasito Tun Tun - Billo's Caracas Boy's
TTITLE24=Moliendo Cafe - Hugo Blanco
TTITLE25=El Cable - Mario Y Sus Diamantes
TTITLE26=Ven Mi Amor - La Gran Banda Caleña
TTITLE27=Llorando Se Fue - Cuarteto Continente
TTITLE28=Jugo De Piña - Los Andinos
TTITLE29=Pa'La Playa - Hugo Blanco/Mario Y Sus Diamantes
EXTD=
EXTT0=
EXTT1=
EXTT2=
EXTT3=
EXTT4=
EXTT5=
EXTT6=
EXTT7=
EXTT8=
EXTT9=
EXTT10=
EXTT11=
EXTT12=
EXTT13=
EXTT14=
EXTT15=
EXTT16=
EXTT17=
EXTT18=
EXTT19=
EXTT20=
EXTT21=
EXTT22=
EXTT23=
EXTT24=
EXTT25=
EXTT26=
EXTT27=
EXTT28=
EXTT29=
PLAYORDER=
